<?xml version="1.0" encoding="utf-8"?>
<!-- Generator: Adobe Illustrator 24.0.1, SVG Export Plug-In . SVG Version: 6.00 Build 0)  -->
<svg version="1.1" id="Camada_1" xmlns="http://www.w3.org/2000/svg" xmlns:xlink="http://www.w3.org/1999/xlink" x="0px" y="0px"
	 viewBox="0 0 1080 400" style="enable-background:new 0 0 1080 400;" xml:space="preserve">
<path d="M1013.65,40c-1.8-2.7-4.8-4.35-9-4.95c-15.9-2.4-31.8-3.75-47.7-4.05c-25.8-1.2-51.45-0.67-76.95,1.58
	c-25.5,2.25-51,5.93-76.5,11.02c-23.7,5.1-47.55,11.4-71.55,18.9c-24,7.5-47.33,16.5-69.97,27c-22.65,10.5-44.48,22.5-65.47,36
	c-21,13.5-40.35,28.8-58.05,45.9c-7.2,6.9-14.55,14.78-22.05,23.63c-7.5,8.85-13.88,18.23-19.13,28.13c-0.9,1.7-1.74,3.43-2.55,5.16
	c-11.68-0.13-23.43-0.28-35.27-0.46l36.9-65.7c6-11.7,12-23.47,18-35.32c6-11.85,11.4-24.08,16.2-36.68
	c1.2-3.6,2.62-7.72,4.28-12.38c1.65-4.65,2.77-9.3,3.38-13.95c0.6-4.65,0.6-9.15,0-13.5c-0.6-4.35-2.41-8.33-5.4-11.93
	c-3-3.6-6.83-5.85-11.47-6.75c-4.66-0.9-9.53-1.13-14.63-0.67c-5.1,0.45-10.13,1.43-15.08,2.92c-4.95,1.5-9.22,2.7-12.83,3.6
	c-12,3.3-23.85,7.05-35.55,11.25c-11.7,4.2-23.25,8.7-34.65,13.5c-24.3,9.9-48.23,20.48-71.77,31.73
	c-23.55,11.25-46.88,23.17-69.98,35.77c-23.1,12.6-45.75,25.95-67.95,40.05c-22.2,14.1-43.2,29.85-63,47.25
	c-6.9,6-14.1,12.98-21.6,20.92c-7.5,7.95-13.8,16.43-18.9,25.43c-5.1,9-8.32,18.45-9.67,28.35s0.82,19.65,6.52,29.25
	c2.1,3.6,4.8,5.63,8.1,6.08c3.3,0.45,6.3-0.23,9-2.03c2.7-1.8,4.57-4.35,5.63-7.65c1.05-3.3,0.52-6.75-1.58-10.35
	c-1.8-3.6-2.7-7.35-2.7-11.25c0-3.9,0.67-7.73,2.02-11.47c1.35-3.75,3.07-7.42,5.17-11.03c2.1-3.6,4.35-6.9,6.75-9.9
	c7.2-9.9,15.37-19.05,24.52-27.45c9.15-8.4,18.82-16.42,29.03-24.08c10.2-7.65,20.54-14.77,31.05-21.38
	c10.5-6.6,21-13.05,31.5-19.35c23.4-14.4,47.32-27.67,71.78-39.82c24.45-12.15,49.42-23.63,74.92-34.43
	c11.7-5.1,23.47-9.9,35.33-14.4C434.62,78,446.7,73.65,459,69.45c3.6-1.2,7.65-2.7,12.15-4.5c4.5-1.8,9.22-3.45,14.17-4.95
	c4.95-1.5,9.9-2.7,14.85-3.6s9.37-0.9,13.28,0c0.6,5.1-0.45,10.65-3.15,16.65c-2.7,6-4.8,11.1-6.3,15.3
	c-3,7.2-6.23,14.33-9.67,21.38c-3.45,7.05-6.83,14.03-10.13,20.92c-6.91,13.2-13.95,26.25-21.15,39.15
	c-7.2,12.9-14.4,25.95-21.6,39.15l-10.8,18.9c-18.9,0-37.58-0.07-56.03-0.22c-18.45-0.15-36.98-0.07-55.58,0.22
	c-12.3,0.3-24.45,0.61-36.45,0.9c-12,0.3-24,0.75-36,1.35c-8.7,0.61-17.7,1.13-27,1.58c-9.3,0.45-18,2.18-26.1,5.17
	c-7.5,3-11.48,6.91-11.92,11.7c-0.45,4.8,0.9,9.67,4.05,14.63s7.2,9.67,12.15,14.17c4.95,4.5,9.23,7.95,12.83,10.35
	c21.6,14.4,44.62,27.22,69.07,38.47c24.45,11.25,49.28,20.17,74.48,26.78c3.6,0.9,8.1,1.8,13.5,2.7c5.4,0.9,10.57,1.2,15.52,0.9
	c4.95-0.3,9.45-1.58,13.5-3.83s6.53-6.23,7.42-11.92c0.9-5.7,2.4-11.02,4.5-15.97c2.1-4.95,4.35-9.98,6.75-15.08
	c4.8-9.9,9.75-19.65,14.85-29.25c5.1-9.6,10.35-19.2,15.75-28.8l40.99,0.15c-0.16,0.78-0.33,1.56-0.47,2.35
	c-1.96,10.8-0.98,21.6,2.92,32.4c3,8.1,7.27,15.15,12.83,21.15c5.55,6,11.92,11.03,19.13,15.08s14.85,7.35,22.95,9.9
	c8.1,2.55,16.2,4.28,24.3,5.18c23.4,3,47.03,2.54,70.88-1.35c23.85-3.9,47.03-9,69.53-15.3c8.7-2.4,17.55-4.88,26.55-7.42
	c9-2.55,18.15-5.48,27.45-8.78L827,272c0.14-0.14,0.26-0.26,0.39-0.38c15.11-9.28,17.86-23.47,18.96-26.22c0.9-3.3,0.97-6,0.23-8.1
	c-0.75-2.09-2.1-3.83-4.05-5.17c-1.96-1.35-4.28-2.25-6.98-2.7s-5.25-0.67-7.65-0.67c-18.86,0-265.21-0.06-305.31-0.2
	c0.97-1.58,1.96-3.15,3.03-4.72c7.04-10.35,15.14-19.95,24.3-28.8c9.15-8.85,17.17-15.98,24.08-21.38
	c21-17.1,43.42-31.95,67.27-44.55c23.85-12.6,48.38-23.7,73.58-33.3C760.75,78.7,808,67,856.6,60.7c48.6-6.3,97.35-6.6,146.25-0.9
	c4.2,0.6,7.42-0.29,9.67-2.7c2.25-2.4,3.45-5.18,3.6-8.33C1016.27,45.63,1015.45,42.7,1013.65,40z M400.95,282.3
	c-4.21,7.5-8.55,15.53-13.05,24.08s-7.36,17.17-8.55,25.88c-3,0.6-6.38,0.52-10.13-0.22c-3.75-0.75-7.58-1.65-11.47-2.7
	c-3.9-1.05-7.58-2.25-11.03-3.6c-3.45-1.35-6.23-2.33-8.32-2.92c-9.61-3.3-18.9-6.68-27.9-10.13c-9-3.45-18-7.28-27-11.47
	c-8.7-4.21-17.25-8.4-25.65-12.6c-8.4-4.2-16.65-8.85-24.75-13.95c-3-1.8-7.2-4.2-12.6-7.2c-5.4-3-9.75-6.3-13.05-9.9l19.35-2.7
	c10.8-1.2,21.67-1.95,32.63-2.25c10.95-0.29,21.97-0.6,33.08-0.9c20.7-0.6,41.47-0.82,62.33-0.67c20.85,0.15,41.77,0.38,62.77,0.67
	L400.95,282.3z M831.95,254.17c0.54-0.02,0.59,0.53,0.31,1.45c-0.31-0.48-0.65-0.96-1.04-1.44
	C831.47,254.18,831.71,254.19,831.95,254.17z M802,253c2.22,0.81,2.53,2.23,1.97,3.8c-0.53,0.4-1.07,0.8-1.6,1.23
	c-3.15,2.55-5.93,4.43-8.33,5.63c-16.2,8.7-32.93,16.12-50.17,22.27c-17.25,6.15-34.73,11.62-52.43,16.42
	c-11.7,3-25.73,6.15-42.07,9.45c-16.36,3.3-32.85,5.17-49.5,5.63c-16.65,0.45-32.4-1.5-47.25-5.85
	c-14.85-4.35-26.48-12.68-34.88-24.98c-6.91-9.9-9.08-20.25-6.53-31.05c0.28-1.21,0.61-2.41,0.95-3.61L802,253z"/>
</svg>
